<?xml version="1.0" encoding="UTF-8"?>
<svg id="Layer_1" data-name="Layer 1" xmlns="http://www.w3.org/2000/svg" viewBox="0 0 2782.59 1959.16">
  <defs>
    <style>
      .cls-1 {
        fill: #fff;
      }

      .cls-2 {
        fill: #00af64;
      }

      .cls-3 {
        fill: #231f20;
      }

      .cls-4 {
        fill: #03ae63;
      }
    </style>
  </defs>
  <g>
    <polygon class="cls-1" points="1707.74 6.4 1937.72 391.85 1672.11 540.85 1474.53 1810.56 1179.77 1953.08 1024.3 1693.96 1481.01 482.54 1328.77 229.9 1707.74 6.4"/>
    <path class="cls-4" d="m1177.96,1959.16l-158.84-264.74.8-2.12,455.91-1209.29-153.51-254.75L1709.38,0l234.82,393.58-267.81,150.24-197.61,1269.89-300.82,145.45Zm-148.48-265.67l152.11,253.51,288.69-139.59,197.56-1269.54,1.99-1.11,261.41-146.64L1706.11,12.8l-370.89,218.73,150.97,250.54-.8,2.12-455.91,1209.3Z"/>
  </g>
  <path class="cls-2" d="m906.44,1559.4c-90.21-39.22-176.66-76.83-263.12-114.4-205.28-89.18-410.45-178.6-616.02-267.09-19.28-8.3-28.07-17.06-27.24-39.79,2.08-56.9.07-113.95,1.34-170.9.19-8.44,7.31-21.21,14.54-24.36,292.63-127.46,585.65-254.04,878.64-380.68,2.38-1.03,5.14-1.15,10.11-2.2.62,8.52,1.65,16.23,1.66,23.94.1,65.25-1.7,130.57.84,195.72,1.03,26.34-9.25,35.84-31.5,44.26-188.72,71.36-377.06,143.76-565.49,215.87-10.21,3.91-20.33,8.07-36.64,14.57,13.29,5.76,21.64,9.65,30.19,13.05,192.62,76.47,385.12,153.23,578.1,228.76,19.62,7.68,25.54,16.96,25.15,37.55-1.38,73.46-.54,146.97-.54,225.69Z"/>
  <path class="cls-2" d="m2509.89,1056.96c-65.47-25.59-124.9-48.9-184.38-72.06-141.88-55.22-283.63-110.79-425.88-165.03-18.7-7.13-24.58-16.18-24.29-35.58,1.08-73.47.44-146.96.44-224.74,29.68,12.55,56.96,23.85,84.05,35.57,265.2,114.69,530.25,229.71,795.76,343.68,19.88,8.53,27.73,17.75,26.96,40-1.87,54.16-1.55,108.46-.1,162.64.5,18.65-5.67,27.07-22.5,34.34-243.34,105.21-486.37,211.16-729.47,316.93-50.27,21.87-100.54,43.76-154.64,67.31,0-83.59-.45-163.21.87-242.79.1-6.19,11.56-14.75,19.46-17.87,191.88-75.94,384-151.27,576.06-226.76,10.63-4.18,21.1-8.75,37.66-15.65Z"/>
  <g>
    <path class="cls-3" d="m1342.17,1528.71l-98.26-29.16,4.59-15.44c2.66-8.97,5.19-15.35,7.58-19.15,3.3-5.42,7.59-9.25,12.85-11.47,5.26-2.23,10.76-2.48,16.51-.78,3.75,1.11,6.91,2.91,9.49,5.39,2.59,2.49,4.69,5.91,6.29,10.27,4.58-5.14,9.38-8.45,14.41-9.97,5.02-1.51,10.42-1.41,16.16.29,5.52,1.64,10.13,4.56,13.82,8.76,3.7,4.2,6,8.89,6.91,14.06s.19,11.72-2.16,19.65l-8.18,27.56Zm-74.87-42.57l20.71,6.14,1.22-4.09c1.35-4.56,1.4-8.23.14-11.01s-3.53-4.66-6.83-5.64c-3.08-.91-5.83-.58-8.26.99-2.42,1.56-4.28,4.49-5.55,8.78l-1.43,4.83Zm37.41,11.1l25.18,7.47,1.39-4.69c2.3-7.77,2.89-13.3,1.73-16.58-1.17-3.29-3.62-5.48-7.36-6.59-4.23-1.26-8.03-.66-11.43,1.78-3.39,2.45-6.18,7.35-8.36,14.72l-1.15,3.89Z"/>
    <path class="cls-3" d="m1285.82,1349.26c4.12-13.9,12.71-24.36,25.74-31.38,13.03-7.02,26.79-8.38,41.26-4.08,14.33,4.25,25.01,12.79,32.01,25.61,7,12.81,8.41,26.26,4.23,40.34-4.38,14.75-13.12,25.49-26.21,32.22-13.09,6.74-26.65,8.02-40.68,3.85-9.4-2.79-17.36-7.62-23.9-14.51-6.54-6.89-10.93-14.99-13.17-24.31-2.25-9.33-2.02-18.57.71-27.76Zm18.24,5.64c-2.7,9.09-1.8,17.67,2.68,25.75,4.48,8.08,11.6,13.56,21.36,16.45,10.86,3.23,20.61,1.88,29.26-4.05,6.74-4.59,11.27-10.81,13.6-18.66,2.63-8.87,1.67-17.38-2.89-25.52-4.55-8.15-11.53-13.61-20.93-16.4-9.35-2.78-18.2-1.98-26.54,2.38-8.35,4.36-13.86,11.05-16.53,20.06Z"/>
    <path class="cls-3" d="m1316.06,1256.42l5.88-19.82c3.22-10.85,6.48-18.29,9.79-22.32,3.3-4.03,7.62-6.77,12.95-8.24,5.33-1.47,11.07-1.29,17.21.54,6.46,1.91,11.4,5.07,14.83,9.45,3.42,4.38,5.32,10.02,5.7,16.91l50.59-10.31-6.07,20.44-48.17,9.75-.51,1.71,41.62,12.35-5.55,18.7-98.26-29.16Zm43.96-7.31l1.74-5.86c1.76-5.95,2.2-10.28,1.3-12.99-.9-2.71-3.16-4.6-6.78-5.67-2.14-.64-4.17-.64-6.09,0-1.92.64-3.5,1.78-4.74,3.44-1.24,1.66-2.6,4.98-4.08,9.95l-1.52,5.13,20.17,5.99Z"/>
    <path class="cls-3" d="m1346.28,1154.59l5.63-18.97,37.07,11,9.73-32.8-37.07-11,5.61-18.91,98.26,29.16-5.61,18.9-43.08-12.78-9.73,32.79,43.08,12.78-5.63,18.98-98.26-29.16Z"/>
    <path class="cls-3" d="m1389.87,1007.69l5.63-18.97,109.48-8.63-5.77,19.44-22.52,1.68-11.9,40.09,17.87,14-5.77,19.44-87.01-67.05Zm28.9-1.87l29.82,23.19,7.8-26.29-37.62,3.1Z"/>
    <path class="cls-3" d="m1418.09,912.6l5.32-17.94,77.14-22.85-64.66-19.19,5.55-18.7,98.26,29.16-5.34,17.99-76.92,22.86,64.46,19.13-5.55,18.7-98.26-29.16Z"/>
  </g>
</svg>